<?xml version="1.0" encoding="UTF-8" standalone="no"?>
<!-- Created with Inkscape (http://www.inkscape.org/) -->

<svg
   xmlns:dc="http://purl.org/dc/elements/1.1/"
   xmlns:cc="http://creativecommons.org/ns#"
   xmlns:rdf="http://www.w3.org/1999/02/22-rdf-syntax-ns#"
   xmlns:svg="http://www.w3.org/2000/svg"
   xmlns="http://www.w3.org/2000/svg"
   xmlns:sodipodi="http://sodipodi.sourceforge.net/DTD/sodipodi-0.dtd"
   xmlns:inkscape="http://www.inkscape.org/namespaces/inkscape"
   width="1024"
   height="1024"
   viewBox="0 0 1024 1024"
   id="svg2"
   version="1.1"
   inkscape:version="0.91 r13725"
   sodipodi:docname="milinda_body.svg"
   inkscape:export-filename="C:\Users\kawahira\Documents\Projects\enju\milinda_body.png"
   inkscape:export-xdpi="90.000008"
   inkscape:export-ydpi="90.000008">
  <defs
     id="defs4" />
  <sodipodi:namedview
     id="base"
     pagecolor="#ffffff"
     bordercolor="#666666"
     borderopacity="1.0"
     inkscape:pageopacity="0.0"
     inkscape:pageshadow="2"
     inkscape:zoom="1.4"
     inkscape:cx="359.1759"
     inkscape:cy="681.85103"
     inkscape:document-units="px"
     inkscape:current-layer="layer4"
     showgrid="false"
     units="px"
     inkscape:window-width="1461"
     inkscape:window-height="841"
     inkscape:window-x="-8"
     inkscape:window-y="-8"
     inkscape:window-maximized="1" />
  <metadata
     id="metadata7">
    <rdf:RDF>
      <cc:Work
         rdf:about="">
        <dc:format>image/svg+xml</dc:format>
        <dc:type
           rdf:resource="http://purl.org/dc/dcmitype/StillImage" />
        <dc:title />
      </cc:Work>
    </rdf:RDF>
  </metadata>
  <g
     inkscape:label="map"
     inkscape:groupmode="layer"
     id="layer1"
     transform="translate(0,-28.36224)"
     style="display:inline" />
  <g
     inkscape:groupmode="layer"
     id="layer5"
     inkscape:label="body"
     style="display:inline">
    <rect
       style="display:inline;opacity:0.95999995;fill:#ebcabb;fill-opacity:1;stroke:none;stroke-width:4;stroke-miterlimit:4;stroke-dasharray:none;stroke-opacity:1"
       id="rect4205"
       width="462.10016"
       height="856.76013"
       x="37.202332"
       y="118.40589"
       ry="59.763611" />
  </g>
  <g
     inkscape:groupmode="layer"
     id="layer4"
     inkscape:label="ps"
     style="display:inline">
    <path
       transform="translate(0,-28.36224)"
       style="display:inline;fill:#7099b4;fill-opacity:1;fill-rule:evenodd;stroke:none;stroke-width:1px;stroke-linecap:butt;stroke-linejoin:miter;stroke-opacity:1"
       d="m 567.70573,723.05251 -98.99495,-92.93403 0,-593.9697 262.63966,-4.04061 -44.44671,262.63966 48.48732,393.95949 z"
       id="path4169"
       inkscape:connector-curvature="0"
       sodipodi:nodetypes="ccccccc" />
    <path
       transform="translate(0,-28.36224)"
       style="display:inline;fill:#7099b4;fill-opacity:1;fill-rule:evenodd;stroke:none;stroke-width:1px;stroke-linecap:butt;stroke-linejoin:miter;stroke-opacity:1"
       d="m 437.39605,380.61079 c 0,0 -49.49747,19.19291 -61.6193,33.33504 -12.12183,14.14214 -27.27412,18.18275 -53.53809,40.4061 C 295.9747,476.57529 244.45691,672.03981 200.0102,684.16164 155.56349,696.28347 26.263966,769.51953 26.263966,769.51953 70.935214,564.05788 72.506374,477.89129 71.79262,269.28586 c 82.56899,-47.9681 170.21274,-89.09258 246.95168,-85.06026 78.55956,4.12799 76.32185,59.80175 128.06873,86.75496 z"
       id="path4173"
       inkscape:connector-curvature="0"
       sodipodi:nodetypes="csssccscc" />
    <path
       transform="translate(0,-28.36224)"
       style="display:inline;fill:#7099b4;fill-opacity:1;fill-rule:evenodd;stroke:none;stroke-width:1px;stroke-linecap:butt;stroke-linejoin:miter;stroke-opacity:1"
       d="m 227.28432,643.25045 c 0.41504,27.47866 123.33471,61.707 185.91883,106.75929 19.47957,14.02271 129.24877,72.03772 129.24877,72.03772 L 449.69735,447.18805 c 0,0 -222.96075,159.79939 -222.41303,196.0624 z"
       id="path4177"
       inkscape:connector-curvature="0"
       sodipodi:nodetypes="ssccs" />
    <path
       style="display:inline;fill:#7099b4;fill-opacity:1;fill-rule:evenodd;stroke:none;stroke-width:1px;stroke-linecap:butt;stroke-linejoin:miter;stroke-opacity:1"
       d="M 731.9632,493.29715 709.12709,322.95413 c 0,0 47.76014,-137.95229 143.3191,-147.7484 62.86079,-6.4441 169.82811,171.99206 169.82811,171.99206 l -21.509,113.17914 c 0,0 -81.52648,56.52649 -132.03411,36.32344 -50.50762,-20.20305 -136.76799,-3.40322 -136.76799,-3.40322 z"
       id="path4155"
       inkscape:connector-curvature="0"
       sodipodi:nodetypes="ccsccsc"
       inkscape:export-xdpi="90.000008"
       inkscape:export-ydpi="90.000008" />
    <path
       transform="translate(0,-28.36224)"
       style="display:inline;fill:#7095b4;fill-opacity:1;fill-rule:evenodd;stroke:none;stroke-width:1px;stroke-linecap:butt;stroke-linejoin:miter;stroke-opacity:1"
       d="M 74.751288,925.08302 464.67017,919.0221 c 0,0 -167.68533,-127.27922 -216.17265,-129.29952 C 200.0102,787.70227 74.751288,925.08302 74.751288,925.08302 Z"
       id="path4203"
       inkscape:connector-curvature="0"
       sodipodi:nodetypes="ccsc" />
  </g>
  <g
     inkscape:groupmode="layer"
     id="layer2"
     inkscape:label="ps1"
     style="display:inline">
    <path
       transform="translate(0,-28.36224)"
       style="fill:#3e70ae;fill-opacity:1;fill-rule:evenodd;stroke:none;stroke-width:1px;stroke-linecap:butt;stroke-linejoin:miter;stroke-opacity:1"
       d="m 70.876776,333.28231 -11.51778,72.00799 c 0,0 323.796394,150.93676 339.651244,180.38147 21.21321,39.39595 27.65078,144.86883 32.49821,166.7767 7.29066,32.95002 38.17043,159.64615 38.17043,159.64615 L 553.56359,848.31143 450.52804,533.14384 C 414.16255,489.70728 70.876776,333.28231 70.876776,333.28231 Z"
       id="path4183"
       inkscape:connector-curvature="0"
       sodipodi:nodetypes="ccsscccc"
       inkscape:export-xdpi="90.000008"
       inkscape:export-ydpi="90.000008" />
    <path
       style="fill:#3e70ae;fill-opacity:1;fill-rule:evenodd;stroke:none;stroke-width:1px;stroke-linecap:butt;stroke-linejoin:miter;stroke-opacity:1"
       d="m 144.45181,704.35235 c 10.10153,22.22336 20.20306,45.45687 20.20306,45.45687 L 25.253813,837.69249 1.0101526,785.16456 Z"
       id="path4185"
       inkscape:connector-curvature="0"
       inkscape:export-xdpi="90.000008"
       inkscape:export-ydpi="90.000008"
       sodipodi:nodetypes="ccccc" />
  </g>
  <g
     inkscape:groupmode="layer"
     id="layer3"
     inkscape:label="ps2"
     style="display:inline">
    <path
       style="fill:#314a6a;fill-opacity:1;fill-rule:evenodd;stroke:none;stroke-width:1px;stroke-linecap:butt;stroke-linejoin:miter;stroke-opacity:1"
       d="m 493.85435,460.29283 c 0,0 74.09578,28.82643 103.38149,28.11214 23.57143,0.71429 109.3597,-32.5204 109.3597,-32.5204 l 5.36766,56.66136 c 0,0 -71.13979,81.19202 -118.28264,82.62059 -57.14286,-5.71429 -108.17355,-80.32545 -108.17355,-80.32545 z"
       id="path4171"
       inkscape:connector-curvature="0"
       sodipodi:nodetypes="ccccccc" />
    <path
       style="fill:#314a61;fill-opacity:1;fill-rule:evenodd;stroke:none;stroke-width:1px;stroke-linecap:butt;stroke-linejoin:miter;stroke-opacity:1"
       d="M 9.8774479,836.24036 C 53.314007,821.90389 64.771058,798.24841 143.65838,777.77289 c 71.6045,-18.58524 99.73589,-64.66776 111.96097,-65.83206 21.47004,-2.04477 119.94269,37.87712 174.82073,73.62284 62.24547,40.54463 118.07275,111.23507 118.07275,111.23507 l -171.99889,3.83808 c 0,0 -102.73002,-90.40493 -145.15643,-90.40493 -38.3858,4.04061 -67.69202,62.98517 -67.69202,62.98517 L 11.635057,870.3436 Z"
       id="path4175"
       inkscape:connector-curvature="0"
       sodipodi:nodetypes="cssscccccc"
       transform="translate(0,-28.36224)" />
    <path
       transform="translate(0,-28.36224)"
       style="fill:#314a6a;fill-opacity:1;fill-rule:evenodd;stroke:none;stroke-width:1px;stroke-linecap:butt;stroke-linejoin:miter;stroke-opacity:1"
       d="M 1.8593191e-8,831.13883 C 1.8593191e-8,831.13883 47.946351,794.92562 65.118943,782.80379 76.789918,774.56546 178.80051,731.21845 204.09286,712.5623 231.31622,692.4818 311.8222,568.11936 336.74845,542.70439 c 28.2433,-28.79707 74.59393,-63.76208 101.71214,-91.2875 8.68784,-4.29433 -39.73749,-70.21436 -39.73749,-70.21436 -1.96396,48.32832 5.13817,65.49681 -26.98696,75.16971 -43.23897,13.01929 -90.9645,69.70053 -113.18785,93.94419 -13.18808,14.387 -55.64314,90.77335 -105.22988,139.72047 -24.6826,24.36422 -140.327106,79.37634 -140.327106,79.37634 z"
       id="path4181"
       inkscape:connector-curvature="0"
       sodipodi:nodetypes="csssccssscc"
       inkscape:export-xdpi="90.000008"
       inkscape:export-ydpi="90.000008" />
    <path
       style="display:inline;fill:#314a6a;fill-opacity:1;fill-rule:evenodd;stroke:none;stroke-width:1px;stroke-linecap:butt;stroke-linejoin:miter;stroke-opacity:1"
       d="m 672.76159,941.16749 335.37061,-4.04061 -12.612,-485.27932 c 0,0 -54.8415,65.82 -89.42209,30.11894 -20.64956,-21.31864 -4.99938,-46.4303 -27.53558,-57.23366 -16.88638,-8.09496 -31.18925,-7.75614 -54.38152,-13.13882 -40.64611,-9.43352 -48.64637,68.35579 -85.78923,77.64151 l -9.41508,120.88922 z"
       id="path4157"
       inkscape:connector-curvature="0"
       sodipodi:nodetypes="cccsssccc" />
    <path
       style="display:inline;fill:#314a6a;fill-opacity:1;fill-rule:evenodd;stroke:none;stroke-width:1px;stroke-linecap:butt;stroke-linejoin:miter;stroke-opacity:1"
       d="m 679.29169,238.2449 25.93836,216.82746 c 0,0 49.25995,-259.78238 145.91012,-270.23429 69.88724,-7.55773 154.01243,250.23428 154.01243,250.23428 l 23.1827,-273.74262 z"
       id="path4159"
       inkscape:connector-curvature="0"
       sodipodi:nodetypes="ccsccc" />
    <path
       style="fill:#314a6a;fill-opacity:1;fill-rule:evenodd;stroke:none;stroke-width:1px;stroke-linecap:butt;stroke-linejoin:miter;stroke-opacity:1"
       d="m 453.5585,446.19274 -10e-6,-44.4467 c 0,0 -39.39595,-61.61931 -71.72083,-67.68023 -32.32488,-6.06092 -54.95434,2.29515 -54.95434,2.29515 0,0 51.27604,20.31787 65.09793,37.24438 23.89702,29.26469 61.57725,72.5874 61.57725,72.5874 z"
       id="path4199"
       inkscape:connector-curvature="0"
       inkscape:export-xdpi="90.000008"
       inkscape:export-ydpi="90.000008"
       sodipodi:nodetypes="ccscsc" />
  </g>
</svg>
