<?xml version="1.0" encoding="UTF-8" standalone="no"?>
<!-- Created with Inkscape (http://www.inkscape.org/) -->

<svg
   xmlns:dc="http://purl.org/dc/elements/1.1/"
   xmlns:cc="http://creativecommons.org/ns#"
   xmlns:rdf="http://www.w3.org/1999/02/22-rdf-syntax-ns#"
   xmlns:svg="http://www.w3.org/2000/svg"
   xmlns="http://www.w3.org/2000/svg"
   xmlns:xlink="http://www.w3.org/1999/xlink"
   xmlns:sodipodi="http://sodipodi.sourceforge.net/DTD/sodipodi-0.dtd"
   xmlns:inkscape="http://www.inkscape.org/namespaces/inkscape"
   width="512"
   height="512"
   id="svg2"
   version="1.1"
   inkscape:version="0.48.4 r9939"
   sodipodi:docname="tina_eye.svg"
   inkscape:export-filename="C:\Users\kawahira\Documents\enju\tina_eye.png"
   inkscape:export-xdpi="45"
   inkscape:export-ydpi="45">
  <defs
     id="defs4">
    <linearGradient
       id="linearGradient3759">
      <stop
         style="stop-color:#29454e;stop-opacity:1;"
         offset="0"
         id="stop3761" />
      <stop
         style="stop-color:#97d4e3;stop-opacity:1;"
         offset="1"
         id="stop3763" />
    </linearGradient>
    <linearGradient
       inkscape:collect="always"
       xlink:href="#linearGradient3759"
       id="linearGradient3765"
       x1="321.65897"
       y1="137.73849"
       x2="244.02647"
       y2="459.97714"
       gradientUnits="userSpaceOnUse" />
  </defs>
  <sodipodi:namedview
     id="base"
     pagecolor="#ffffff"
     bordercolor="#666666"
     borderopacity="1.0"
     inkscape:pageopacity="0.0"
     inkscape:pageshadow="2"
     inkscape:zoom="0.59326172"
     inkscape:cx="-79.433744"
     inkscape:cy="288.89703"
     inkscape:document-units="px"
     inkscape:current-layer="layer1"
     showgrid="false"
     inkscape:window-width="1751"
     inkscape:window-height="1058"
     inkscape:window-x="-8"
     inkscape:window-y="-8"
     inkscape:window-maximized="1" />
  <metadata
     id="metadata7">
    <rdf:RDF>
      <cc:Work
         rdf:about="">
        <dc:format>image/svg+xml</dc:format>
        <dc:type
           rdf:resource="http://purl.org/dc/dcmitype/StillImage" />
        <dc:title></dc:title>
      </cc:Work>
    </rdf:RDF>
  </metadata>
  <g
     inkscape:label="レイヤー 1"
     inkscape:groupmode="layer"
     id="layer1"
     transform="translate(0,-540.36218)">
    <path
       sodipodi:type="arc"
       style="fill:url(#linearGradient3765);fill-opacity:1;stroke:#000000;stroke-width:5.2;stroke-linecap:round;stroke-miterlimit:4;stroke-opacity:1;stroke-dasharray:none;stroke-dashoffset:0"
       id="path2985"
       sodipodi:cx="286.88333"
       sodipodi:cy="291.28168"
       sodipodi:rx="127.27922"
       sodipodi:ry="144.95689"
       d="m 414.16255,291.28168 c 0,80.05748 -56.98485,144.95689 -127.27922,144.95689 -70.29437,0 -127.27922,-64.89941 -127.27922,-144.95689 0,-80.05748 56.98485,-144.9569 127.27922,-144.9569 70.29437,0 127.27922,64.89942 127.27922,144.9569 z"
       transform="translate(-28.568542,506.8444)"
       inkscape:transform-center-x="16.162436"
       inkscape:transform-center-y="12.121826" />
    <path
       sodipodi:type="arc"
       style="fill:#2b415a;fill-opacity:1;stroke:#1a2641;stroke-opacity:1;stroke-width:1.11168081999999990;stroke-miterlimit:4;stroke-dasharray:none"
       id="path2987"
       sodipodi:cx="227.7894"
       sodipodi:cy="241.27911"
       sodipodi:rx="17.67767"
       sodipodi:ry="14.142136"
       d="m 245.46707,241.27911 a 17.67767,14.142136 0 1 1 -35.35534,0 17.67767,14.142136 0 1 1 35.35534,0 z"
       transform="matrix(3.7594521,0,0,5.5982923,-596.27612,-551.44154)" />
    <path
       sodipodi:type="arc"
       style="fill:#ffffff;fill-opacity:1;stroke:none"
       id="path2987-1"
       sodipodi:cx="227.7894"
       sodipodi:cy="241.27911"
       sodipodi:rx="17.67767"
       sodipodi:ry="14.142136"
       d="m 245.46707,241.27911 c 0,7.81049 -7.91456,14.14214 -17.67767,14.14214 -9.76311,0 -17.67767,-6.33165 -17.67767,-14.14214 0,-7.81048 7.91456,-14.14213 17.67767,-14.14213 9.76311,0 17.67767,6.33165 17.67767,14.14213 z"
       transform="matrix(1.1428572,0,0,1.3214284,-75.7571,417.16859)" />
    <path
       sodipodi:type="arc"
       style="fill:#ffffff;fill-opacity:1;stroke:none"
       id="path2987-1-7"
       sodipodi:cx="227.7894"
       sodipodi:cy="241.27911"
       sodipodi:rx="17.67767"
       sodipodi:ry="14.142136"
       d="m 245.46707,241.27911 c 0,7.81049 -7.91456,14.14214 -17.67767,14.14214 -9.76311,0 -17.67767,-6.33165 -17.67767,-14.14214 0,-7.81048 7.91456,-14.14213 17.67767,-14.14213 9.76311,0 17.67767,6.33165 17.67767,14.14213 z"
       transform="matrix(0.51428577,0,0,0.60714268,101.76998,582.43978)" />
    <path
       sodipodi:type="arc"
       style="fill:#ffffff;fill-opacity:0.22627737;stroke:none"
       id="path3803"
       sodipodi:cx="229.80971"
       sodipodi:cy="361.48727"
       sodipodi:rx="48.992397"
       sodipodi:ry="9.0913734"
       d="m 278.8021,361.48727 c 0,5.02103 -21.93464,9.09138 -48.99239,9.09138 -27.05776,0 -48.9924,-4.07035 -48.9924,-9.09138 0,-5.02102 21.93464,-9.09137 48.9924,-9.09137 27.05775,0 48.99239,4.07035 48.99239,9.09137 z"
       transform="translate(29.010153,566.4231)" />
  </g>
</svg>
