<?xml version="1.0" encoding="UTF-8" standalone="no"?>
<!-- Created with Inkscape (http://www.inkscape.org/) -->

<svg
   xmlns:dc="http://purl.org/dc/elements/1.1/"
   xmlns:cc="http://creativecommons.org/ns#"
   xmlns:rdf="http://www.w3.org/1999/02/22-rdf-syntax-ns#"
   xmlns:svg="http://www.w3.org/2000/svg"
   xmlns="http://www.w3.org/2000/svg"
   xmlns:sodipodi="http://sodipodi.sourceforge.net/DTD/sodipodi-0.dtd"
   xmlns:inkscape="http://www.inkscape.org/namespaces/inkscape"
   width="512"
   height="512"
   viewBox="0 0 512.00001 512.00001"
   id="svg2"
   version="1.1"
   inkscape:version="0.91 r13725"
   sodipodi:docname="koushou.svg"
   inkscape:export-filename="C:\Users\kawahira\Documents\Projects\enju\kirin\koushou.png"
   inkscape:export-xdpi="45"
   inkscape:export-ydpi="45">
  <defs
     id="defs4" />
  <sodipodi:namedview
     id="base"
     pagecolor="#ffffff"
     bordercolor="#666666"
     borderopacity="1.0"
     inkscape:pageopacity="0.0"
     inkscape:pageshadow="2"
     inkscape:zoom="1.979899"
     inkscape:cx="270.81983"
     inkscape:cy="255.43481"
     inkscape:document-units="px"
     inkscape:current-layer="layer1"
     showgrid="false"
     units="px"
     inkscape:window-width="1826"
     inkscape:window-height="1051"
     inkscape:window-x="-9"
     inkscape:window-y="-9"
     inkscape:window-maximized="1" />
  <metadata
     id="metadata7">
    <rdf:RDF>
      <cc:Work
         rdf:about="">
        <dc:format>image/svg+xml</dc:format>
        <dc:type
           rdf:resource="http://purl.org/dc/dcmitype/StillImage" />
        <dc:title />
      </cc:Work>
    </rdf:RDF>
  </metadata>
  <g
     inkscape:label="レイヤー 1"
     inkscape:groupmode="layer"
     id="layer1"
     transform="translate(0,-540.36216)">
    <path
       sodipodi:type="star"
       style="opacity:0.95999995;fill:#5bb7ff;fill-opacity:1;stroke:#404040;stroke-width:4.87574196;stroke-miterlimit:4;stroke-dasharray:none;stroke-opacity:1"
       id="path4144"
       sodipodi:sides="6"
       sodipodi:cx="249.29946"
       sodipodi:cy="794.505"
       sodipodi:r1="243.45032"
       sodipodi:r2="210.83417"
       sodipodi:arg1="-1.5707963"
       sodipodi:arg2="-1.0471976"
       inkscape:flatsided="true"
       inkscape:rounded="0"
       inkscape:randomized="0"
       d="m 249.29946,551.05469 210.83416,121.72516 -1e-5,243.45032 -210.83416,121.72513 -210.834159,-121.72514 7e-6,-243.45032 z" />
    <path
       style="fill:#f158a4;fill-opacity:1;fill-rule:evenodd;stroke:#e5e5e5;stroke-width:4;stroke-linecap:butt;stroke-linejoin:miter;stroke-miterlimit:4;stroke-dasharray:none;stroke-opacity:1"
       d="m 293.57143,872.36215 c 0,0 120.68384,67.26031 133.15725,48.79825 16.5702,-24.52577 -81.01439,-135.9411 -81.01439,-135.9411 0,0 106.42857,-43.57144 99.99999,-72.14286 -6.5216,-28.98486 -152.14285,12.14286 -152.14285,12.14286 0,0 -101.70507,-113.94541 -122.85715,-101.42857 -23.31766,13.79834 25.7143,147.85715 25.7143,147.85715 0,0 -122.142865,92.14285 -127.142865,123.57142 -5,31.42857 147.857145,-37.85713 147.857145,-37.85713 0,0 -23.4216,135.03742 2.14285,141.42853 42.85715,10.7143 74.28572,-126.42855 74.28572,-126.42855 z"
       id="path4146"
       inkscape:connector-curvature="0"
       sodipodi:nodetypes="cscscscscsc" />
    <path
       style="opacity:1;fill:#f15883;fill-opacity:1;stroke:#121212;stroke-width:4;stroke-miterlimit:4;stroke-dasharray:none;stroke-opacity:1"
       d="m 339.81055,78.53125 c -19.47814,-0.551385 -50.45829,47.01293 -71.01953,82.88477 -3.86066,-0.53116 -7.75153,-0.813 -11.64844,-0.84375 C 235.23742,160.61368 214.08709,168.58 197.59766,183 144.87665,165.50619 68.589438,142.91436 61.347656,156.14453 c -8.425249,15.39228 57.750974,58.08711 105.521484,86.33203 -0.28987,2.92731 -0.43718,5.86698 -0.44141,8.8086 0.0247,21.03548 11.90475,44.439 25.29374,60.66327 -25.33659,40.51669 -62.16562,95.97891 -46.08866,108.48321 18.38203,14.29713 56.21921,-48.6184 80.40354,-84.30077 7.82581,2.18598 22.98091,5.83601 31.10623,5.86913 1.68622,-0.0122 3.37177,-0.0715 5.05469,-0.17773 18.56072,38.19037 52.31192,101.38096 69.15039,93.60937 26.13487,-12.06224 3.12269,-78.89776 -12.81836,-117.47852 8.84601,-8.15139 15.98249,-17.98073 20.99414,-28.91601 39.9031,-2.32725 101.72811,-8.34154 102.83789,-23.37891 1.55873,-21.12048 -60.31711,-36.79651 -99.80078,-44.6289 -4.21969,-11.95331 -10.89774,-22.88957 -19.60352,-32.10352 15.86528,-35.91319 39.50898,-96.925812 22.67578,-108.494139 -1.79153,-1.231197 -3.74089,-1.841472 -5.82226,-1.900391 z"
       transform="translate(0,540.36216)"
       id="path4163"
       inkscape:connector-curvature="0"
       sodipodi:nodetypes="scccscccscccsccsccss" />
    <path
       style="opacity:1;fill:#ffffff;fill-opacity:1;stroke:#343434;stroke-width:2;stroke-miterlimit:4;stroke-dasharray:none;stroke-opacity:1"
       d="m 340.3496,85.150093 c -16.6482,-5.524277 -63.55745,80.871557 -74.99502,114.539947 -1.7229,-0.17991 -3.45335,-0.27833 -5.18554,-0.29492 -30.37566,0 -55.88388,24.3718 -55.88388,54.74746 0.022,11.67449 0.22267,21.52393 7.13243,30.93399 -28.15491,36.90395 -79.56053,124.49021 -64.36055,134.44881 17.10793,11.20865 77.19166,-75.43549 87.28631,-112.68672 9.44155,2.68709 15.68697,2.28305 24.94181,2.30392 30.37566,0 55,-24.62434 55,-55 -0.0241,-18.07744 -6.40451,-33.8524 -21.29689,-44.09991 C 319.81875,190.40349 357.32669,90.783507 340.3496,85.150093 Z M 259.64258,222.71484 c 17.55433,3.1e-4 31.78484,14.23083 31.78515,31.78516 -3.1e-4,17.55433 -14.23082,31.78485 -31.78515,31.78516 -17.55433,-3.1e-4 -31.78485,-14.23083 -31.78516,-31.78516 3.1e-4,-17.55433 14.23083,-31.78485 31.78516,-31.78516 z"
       transform="translate(0,540.36216)"
       id="path4186"
       inkscape:connector-curvature="0"
       sodipodi:nodetypes="sccccsccccsccccc" />
  </g>
</svg>
